<?xml version="1.0" encoding="UTF-8"?>
<svg viewBox="0 0 400 600" xmlns="http://www.w3.org/2000/svg" xmlns:svg="http://www.w3.org/2000/svg">
    <defs>
        <radialGradient id="topLeft" cx="200" cy="200" r="230.2276" gradientUnits="userSpaceOnUse">
            <stop style="stop-color:#862e9f;stop-opacity:1;" offset="0.86851698" />
            <stop style="stop-color:#9d35bb;stop-opacity:1;" offset="1" />
        </radialGradient>
        <radialGradient id="bottomLeft" cx="148.8988" cy="116.6553" r="310" gradientUnits="userSpaceOnUse">
            <stop style="stop-color:#1c7363;stop-opacity:1;" offset="0.33052871" />
            <stop style="stop-color:#1da78e;stop-opacity:1;" offset="1" />
        </radialGradient>
        <linearGradient id="bottomRight" x1="392.7051" y1="350" x2="267.7051" y2="600" gradientUnits="userSpaceOnUse">
            <stop style="stop-color:#0e5cb2;stop-opacity:1;" offset="0" />
            <stop style="stop-color:#4794e9;stop-opacity:1;" offset="0.82513483" />
        </linearGradient>
        <linearGradient id="topRight" x1="24.6017" y1="103.8988" x2="375.3983" y2="496.1012" gradientUnits="userSpaceOnUse">
            <stop style="stop-color:#08b7ff;stop-opacity:1;" offset="0" />
            <stop style="stop-color:#c267ff;stop-opacity:1;" offset="1" />
        </linearGradient>
    </defs>
    <g fill="none">
        <path fill="url(#topLeft)" d="M65.10847396 52.33728906 A200 200 0 0 0 24.60172829 103.89877066 A200 200 0 0 0 0 200 L0 100 A50 50 0 0 1 65.10847396 52.33728906 Z" />
        <path fill="url(#bottomLeft)" d="M100 250 L100 400 A50 50 0 1 1 0 400 L0 200 A200 200 0 0 1 24.60172829 103.89877066 A93.44649932 93.44649932 0 0 0 64.76295573 232.38147787 L100 250 Z" />
        <path fill="url(#bottomRight)" d="M375.39827171 496.10122934 A200 200 0 0 1 100 573.20508076 A50 50 0 1 1 150 486.60254038 A100 100 0 0 0 300 400 L300 350 L335.23704427 367.61852213 A93.44649932 93.44649932 0 0 1 375.39827171 496.10122934 Z" />
        <path fill="url(#topRight)" d="M375.39827171 496.10122934 A200 200 0 0 0 400 400 L400 200 A200 200 0 0 0 65.10847396 52.33728906 A200 200 0 0 0 24.60172829 103.89877066 A93.44649932 93.44649932 0 0 0 64.76295573 232.38147787 L100 250 L300 350 L335.23704427 367.61852213 A93.44649932 93.44649932 0 0 1 375.39827171 496.10122934 Z" />
    </g>
</svg>