<?xml version="1.0" encoding="UTF-8"?>
<svg viewBox="0 0 2025 205" xmlns="http://www.w3.org/2000/svg" xmlns:svg="http://www.w3.org/2000/svg">
    <path d="m 54.49601,159.08855 q -17.09284,0 -30.76712,-4.69792 Q 10.05462,149.69272 0,141.15105 l 6.43495,-15.80208 q 7.03824,5.55207 14.27756,9.39583 7.23933,3.63021 15.48411,5.55209 8.44588,1.70833 18.29939,1.70833 17.49503,0 25.73982,-6.61979 8.445874,-6.83334 8.445874,-17.93751 0,-9.60937 -5.831674,-14.73437 Q 77.01835,97.588549 62.5397,94.598959 L 41.02283,89.901049 Q 21.51688,85.63022 11.86445,76.02084 2.4131,66.19792 2.4131,49.54167 2.4131,36.08855 9.04915,26.05209 15.8863,15.80209 27.75074,10.25 39.81627,4.69792 55.90366,4.69792 q 14.88084,0 27.54965,4.69792 12.668814,4.69791 21.31578,13.88021 L 98.334144,38.4375 q -9.04916,-8.7552 -19.505954,-12.59895 -10.25572,-4.0573 -23.32671,-4.0573 -15.8863,0 -25.13654,7.26042 -9.25025,7.26042 -9.25025,19.64584 0,9.82292 5.83168,15.58854 5.83168,5.55207 19.30486,8.54167 l 21.51688,4.48437 q 20.511424,4.27083 29.962754,13.453129 9.652426,9.18229 9.652426,25.411461 0,12.8125 -6.43495,22.63542 -6.434956,9.60937 -18.29941,14.94791 -11.86443,5.33854 -28.15292,5.33854 z m 77.42059,-1.92188 V 49.75521 h 18.29941 V 157.16667 Z M 130.30787,26.26563 V 5.33855 h 21.71796 v 20.92708 z m 50.47417,130.90104 v -82 q 0,-6.19271 -0.40219,-12.59896 -0.40219,-6.40625 -1.20655,-12.8125 h 17.69612 l 2.01093,23.06251 h -2.41311 q 4.02184,-11.95834 12.8699,-18.36459 8.84806,-6.61979 21.1147,-6.61979 12.46771,0 20.51141,6.40625 8.04369,6.1927 10.85899,19.64583 h -3.01639 q 3.82076,-11.95834 13.47318,-19.00521 9.65244,-7.04687 22.52234,-7.04687 16.69067,0 25.13654,10.46354 8.44588,10.25 8.44588,32.031249 v 66.838541 h -18.2994 V 91.395839 q 0,-14.734379 -4.82622,-21.140629 -4.82622,-6.61979 -15.28301,-6.61979 -12.26664,0 -19.30486,8.96875 -7.03824,8.75521 -7.03824,23.916669 V 157.16667 H 245.33267 V 91.395839 q 0,-14.734379 -4.82622,-21.140629 -4.62512,-6.61979 -15.28301,-6.61979 -12.26663,0 -19.30487,8.96875 -6.83713,8.75521 -6.83713,23.916669 v 60.645831 z m 177.56439,46.125 v -128.125 q 0,-6.19271 -0.40218,-12.59896 -0.40219,-6.40625 -1.20655,-12.8125 h 17.69611 l 2.21203,24.77084 h -2.21203 q 3.01639,-12.38542 12.86991,-19.43229 9.85352,-7.26042 23.52781,-7.26042 13.47318,0 23.5278,6.61979 10.05461,6.61979 15.4841,19.21875 5.63058,12.38541 5.63058,29.6823 0,17.29687 -5.63058,29.89583 -5.42949,12.59895 -15.4841,19.21875 -10.05462,6.61979 -23.5278,6.61979 -13.4732,0 -23.32671,-7.04688 -9.65244,-7.26041 -13.07101,-19.43228 h 2.21203 v 70.68228 z m 48.26215,-59.57813 q 13.87537,0 22.12015,-10.24999 8.2448,-10.25 8.2448,-30.10937 0,-19.85938 -8.2448,-29.89584 -8.24478,-10.03647 -22.12015,-10.03647 -13.87536,0 -22.12015,10.03647 -8.04369,10.03646 -8.04369,29.89584 0,19.85937 8.04369,30.10937 8.24479,10.24999 22.12015,10.24999 z m 119.44872,15.37501 q -24.1311,0 -38.20752,-14.73438 -13.87536,-14.73437 -13.87536,-40.57292 0,-17.08333 6.03277,-29.46874 6.23385,-12.59896 17.09284,-19.4323 10.85897,-7.04687 25.33767,-7.04687 13.8753,0 23.5278,6.40625 9.6524,6.1927 14.6797,17.72395 5.0273,11.53126 5.0273,27.333339 v 6.406251 H 488.25197 V 94.171879 h 64.95283 l -3.4186,2.77605 q 0,-16.656259 -7.0382,-25.838549 -6.8372,-9.1823 -20.3103,-9.1823 -14.6798,0 -22.72347,10.89064 -8.0437,10.67708 -8.0437,29.25521 v 1.92187 q 0,19.64583 9.04917,29.68229 9.2502,10.03645 25.5387,10.03645 9.0492,0 16.8918,-2.77603 7.8426,-2.77604 15.0819,-9.18229 l 6.0328,13.45313 q -6.8372,6.61979 -17.0929,10.24999 -10.0546,3.63021 -21.1147,3.63021 z m 101.1496,0 q -15.8863,0 -24.1311,-9.18229 -8.0437,-9.39583 -8.0437,-28.18751 V 64.70313 h -19.707 V 49.75521 h 19.707 V 20.92709 l 18.2994,-5.33854 v 34.16666 h 28.5551 v 14.94792 h -28.5551 v 55.30729 q 0,12.38543 4.0219,17.72396 4.2229,5.125 12.0655,5.125 4.0218,0 6.8372,-0.64063 3.0164,-0.85416 5.4294,-1.92186 v 16.01562 q -3.0164,1.28125 -7.0382,1.92188 -3.8207,0.85416 -7.4404,0.85416 z m 72.3934,0 q -13.2721,0 -23.3268,-6.61979 -10.0545,-6.6198 -15.6851,-19.21875 -5.6306,-12.59896 -5.6306,-29.89583 0,-17.29689 5.6306,-29.6823 5.6306,-12.59896 15.6851,-19.21875 10.0547,-6.61979 23.3268,-6.61979 13.4732,0 23.3267,7.26042 10.0546,7.04687 13.2721,19.43229 h -2.4131 l 2.212,-24.77084 h 17.6962 q -0.6034,6.40625 -1.2066,12.8125 -0.4022,6.40625 -0.4022,12.59896 v 82 H 733.786 v -24.55728 h 2.212 q -3.2174,12.17187 -13.2721,19.43228 -9.8536,7.04688 -23.1256,7.04688 z m 4.2229,-15.37501 q 13.6743,0 21.9191,-10.24999 8.2448,-10.25 8.2448,-30.10937 0,-19.85938 -8.2448,-29.89584 -8.2448,-10.03647 -21.9191,-10.03647 -13.6742,0 -22.1201,10.03647 -8.2448,10.03646 -8.2448,29.89584 0,19.85937 8.2448,30.10937 8.2448,10.24999 22.1201,10.24999 z m 167.91205,13.45313 V 23.48959 h -49.0665 V 6.6198 h 117.2368 v 16.86979 h -49.2676 v 133.67708 z m 116.63359,1.92188 q -24.13099,0 -38.20749,-14.73438 -13.8754,-14.73437 -13.8754,-40.57292 0,-17.08333 6.0328,-29.46874 6.2339,-12.59896 17.0928,-19.4323 10.8591,-7.04687 25.3376,-7.04687 13.87549,0 23.52785,6.40625 9.6524,6.1927 14.6797,17.72395 5.0273,11.53126 5.0273,27.333339 v 6.406251 H 950.56355 V 94.171879 h 64.95275 l -3.4185,2.77605 q 0,-16.656259 -7.0383,-25.838549 -6.83716,-9.1823 -20.31035,-9.1823 -14.6797,0 -22.7233,10.89064 -8.0437,10.67708 -8.0437,29.25521 v 1.92187 q 0,19.64583 9.0491,29.68229 9.2503,10.03645 25.53869,10.03645 9.0492,0 16.89166,-2.77603 7.8427,-2.77604 15.082,-9.18229 l 6.0328,13.45313 q -6.8372,6.61979 -17.0929,10.24999 -10.05446,3.63021 -21.11466,3.63021 z m 106.98116,0 q -15.082,0 -26.142,-6.61979 -11.0601,-6.83334 -17.294,-19.4323 -6.0328,-12.8125 -6.0328,-30.32291 0,-17.29688 6.2339,-29.46876 6.2339,-12.38541 17.294,-18.79166 11.06,-6.61979 25.9409,-6.61979 9.8535,0 19.1037,3.63021 9.2503,3.41666 15.0819,10.03646 l -6.2339,13.66666 q -5.8316,-5.97916 -12.8698,-8.7552 -7.0383,-2.9896 -13.8754,-2.9896 -14.8809,0 -23.3267,10.25001 -8.4459,10.03646 -8.4459,29.25521 0,19.43229 8.4459,29.89583 8.4458,10.46355 23.3267,10.46355 6.636,0 13.6743,-2.77604 7.0383,-2.77605 13.0709,-8.75521 l 6.2339,13.45313 q -6.0327,6.83332 -15.484,10.46353 -9.2503,3.41667 -18.7016,3.41667 z m 56.5069,-1.92188 V 0 h 18.2993 v 73.03126 h -2.6141 q 4.424,-12.38542 14.2776,-18.79167 9.8534,-6.40625 22.7233,-6.40625 18.2995,0 26.9464,10.46354 8.8481,10.46354 8.8481,31.604169 v 67.265621 h -18.2994 V 90.968749 q 0,-14.307289 -5.2284,-20.713539 -5.2284,-6.61979 -17.0928,-6.61979 -13.2722,0 -21.5169,8.75521 -8.0438,8.7552 -8.0438,23.276049 v 61.499991 z m 118.4435,0 v -82 q 0,-6.19271 -0.4022,-12.59896 -0.4022,-6.40625 -1.2065,-12.8125 h 17.6961 l 2.0109,23.06251 h -2.4131 q 4.6251,-12.17188 14.2775,-18.57813 9.6525,-6.40625 22.5224,-6.40625 17.8972,0 26.9464,10.46354 9.0492,10.25 9.0492,32.031249 v 66.838541 h -18.2995 V 91.395839 q 0,-14.734379 -5.4295,-21.140629 -5.4294,-6.61979 -16.8917,-6.61979 -13.6744,0 -21.718,8.75521 -7.8426,8.7552 -7.8426,23.703119 v 61.072921 z m 161.0752,1.92188 q -14.8809,0 -25.7399,-6.61979 -10.859,-6.83334 -16.8917,-19.21875 -6.0328,-12.59896 -6.0328,-29.89583 0,-17.08334 6.0328,-29.46876 6.0327,-12.59896 16.8917,-19.21875 10.859,-6.83333 25.7399,-6.83333 14.8808,0 25.7397,6.83333 11.0601,6.61979 16.8917,19.21875 6.0328,12.38542 6.0328,29.46876 0,17.29687 -6.0328,29.89583 -5.8316,12.38541 -16.8917,19.21875 -10.8589,6.61979 -25.7397,6.61979 z m 0,-15.37501 q 13.6742,0 21.919,-10.24999 8.2447,-10.25 8.2447,-30.10937 0,-19.85938 -8.2447,-29.89584 -8.2448,-10.03647 -21.919,-10.03647 -13.8755,0 -22.1203,10.03647 -8.0436,10.03646 -8.0436,29.89584 0,19.85937 8.0436,30.10937 8.2448,10.24999 22.1203,10.24999 z m 73.1976,13.45313 V 0 h 18.2993 v 157.16667 z m 91.4969,1.92188 q -14.8809,0 -25.7398,-6.61979 -10.8589,-6.83334 -16.8917,-19.21875 -6.0328,-12.59896 -6.0328,-29.89583 0,-17.08334 6.0328,-29.46876 6.0328,-12.59896 16.8917,-19.21875 10.8589,-6.83333 25.7398,-6.83333 14.8809,0 25.7398,6.83333 11.0601,6.61979 16.8918,19.21875 6.0327,12.38542 6.0327,29.46876 0,17.29687 -6.0327,29.89583 -5.8317,12.38541 -16.8918,19.21875 -10.8589,6.61979 -25.7398,6.61979 z m 0,-15.37501 q 13.6743,0 21.9191,-10.24999 8.2448,-10.25 8.2448,-30.10937 0,-19.85938 -8.2448,-29.89584 -8.2448,-10.03647 -21.9191,-10.03647 -13.8754,0 -22.1202,10.03647 -8.0436,10.03646 -8.0436,29.89584 0,19.85937 8.0436,30.10937 8.2448,10.24999 22.1202,10.24999 z m 118.2423,61.28647 q -13.2721,0 -24.3321,-3.41666 -11.0602,-3.41667 -19.9082,-10.46355 l 4.8262,-14.30729 q 6.2339,4.48437 12.2666,7.26041 6.0328,2.77605 12.4678,4.0573 6.636,1.28125 13.6742,1.28125 14.8808,0 22.3213,-8.11459 7.4404,-8.11458 7.4404,-23.06249 V 128.125 h 2.011 q -3.2175,12.17189 -13.2722,19.4323 -9.8534,7.04688 -23.3266,7.04688 -13.6744,0 -23.93,-6.40625 -10.0547,-6.6198 -15.6852,-18.57813 -5.6306,-12.17188 -5.6306,-28.40104 0,-16.44271 5.6306,-28.40104 5.6305,-11.95834 15.6852,-18.36459 10.2556,-6.61979 23.93,-6.61979 13.4732,0 23.3266,7.04687 9.8535,7.04687 13.071,19.4323 l -1.8098,-1.92188 1.8098,-22.63542 h 17.6961 q -0.6032,6.40625 -1.2065,12.8125 -0.4022,6.40625 -0.4022,12.59896 v 80.71876 q 0,23.91666 -11.8644,36.51562 -11.6634,12.59896 -34.789,12.59896 z m -1.8099,-65.77084 q 13.8755,0 22.1203,-10.03645 8.2448,-10.03646 8.2448,-27.97396 0,-18.15105 -8.2448,-27.97397 -8.2448,-9.82292 -22.1203,-9.82292 -14.0764,0 -22.5222,9.82292 -8.2448,9.82292 -8.2448,27.97397 0,17.9375 8.2448,27.97396 8.4458,10.03645 22.5222,10.03645 z m 79.0293,17.9375 V 49.75521 h 18.2994 V 157.16667 Z M 1789.9231,26.26563 V 5.33855 h 21.718 v 20.92708 z m 96.5243,132.82292 q -24.131,0 -38.2075,-14.73438 -13.8754,-14.73437 -13.8754,-40.57292 0,-17.08333 6.0328,-29.46874 6.2339,-12.59896 17.0929,-19.4323 10.8589,-7.04687 25.3376,-7.04687 13.8753,0 23.5277,6.40625 9.6525,6.1927 14.6799,17.72395 5.0272,11.53126 5.0272,27.333339 v 6.406251 h -77.4205 V 94.171879 h 64.9528 l -3.4186,2.77605 q 0,-16.656259 -7.0382,-25.838549 -6.8371,-9.1823 -20.3103,-9.1823 -14.6797,0 -22.7234,10.89064 -8.0438,10.67708 -8.0438,29.25521 v 1.92187 q 0,19.64583 9.0492,29.68229 9.2503,10.03645 25.5388,10.03645 9.0491,0 16.8917,-2.77603 7.8426,-2.77604 15.0819,-9.18229 l 6.0328,13.45313 q -6.8371,6.61979 -17.0928,10.24999 -10.0547,3.63021 -21.1148,3.63021 z m 97.7309,0 q -12.2667,0 -22.9246,-3.41667 -10.4568,-3.41667 -17.2938,-9.82292 l 5.8316,-13.45311 q 7.4404,5.97916 16.2885,9.18228 9.0492,2.98959 18.5005,2.98959 11.4623,0 17.2939,-4.48438 6.0328,-4.48437 6.0328,-11.95834 0,-5.97916 -3.8208,-9.60937 -3.8207,-3.6302 -12.0655,-5.33855 l -19.1038,-4.05728 q -12.8699,-3.20313 -19.5059,-10.250011 -6.4351,-7.26041 -6.4351,-18.578119 0,-9.39583 4.8263,-16.65625 4.8263,-7.47396 13.6743,-11.53124 9.0491,-4.27084 21.1146,-4.27084 11.0601,0 20.5115,3.41666 9.6524,3.41667 15.8862,10.03646 l -6.0326,13.02605 q -6.2339,-5.76563 -14.0766,-8.75522 -7.6414,-3.20312 -15.6852,-3.20312 -11.6633,0 -17.2939,4.91146 -5.6306,4.69791 -5.6306,12.38541 0,5.76563 3.4186,9.60938 3.4186,3.630209 11.0601,5.552089 l 19.1037,4.05728 q 13.4732,2.989601 20.3104,9.822921 6.8371,6.83334 6.8371,18.15105 0,10.03646 -5.2284,17.29687 -5.0274,7.26042 -14.2775,11.10417 -9.0492,3.84375 -21.3158,3.84375 z" />
</svg>