<?xml version="1.0" encoding="UTF-8"?>
<svg viewBox="0 0 1666 100" xmlns="http://www.w3.org/2000/svg" xmlns:svg="http://www.w3.org/2000/svg">
    <path d="m 18.76221,76.96127 q -6.5028,0 -10.87355,-0.99305 Q 3.51792,74.97517 0,73.58491 v -4.0715 q 3.62452,1.68818 8.20847,2.78054 4.69055,1.09235 10.66035,1.09235 3.51792,0 7.24904,-0.79444 3.73112,-0.89374 6.92923,-2.78053 3.1981,-1.9861 5.11696,-5.06455 2.02547,-3.07846 2.02547,-7.34856 0,-4.17081 -2.02547,-7.05065 -1.91886,-2.87984 -5.43678,-5.06455 -3.4113,-2.28401 -8.20846,-4.56802 -3.62453,-1.78749 -6.92923,-4.0715 -3.30471,-2.28401 -5.33017,-5.46176 -2.02548,-3.17776 -2.02548,-7.64648 0,-5.26316 2.02548,-8.93744 2.13207,-3.67428 5.64998,-5.95829 3.62452,-2.38332 7.88866,-3.47567 4.37074,-1.09236 8.74149,-1.09236 5.86319,0 9.91412,0.99305 4.15753,0.99305 7.99526,2.78054 l -1.70566,3.47567 Q 46.79894,9.53327 43.06782,8.63953 39.33669,7.64648 34.43293,7.64648 q -3.0915,0 -6.60942,0.79444 -3.41131,0.79444 -6.50281,2.68123 -2.9849,1.78748 -4.90376,4.76663 -1.91887,2.97915 -1.91887,7.44787 0,3.87289 1.81227,6.55412 1.81226,2.58193 4.69055,4.46872 2.9849,1.78749 6.39621,3.47567 4.79716,2.38331 8.63488,4.86593 3.94434,2.48263 6.183,5.9583 2.34528,3.37637 2.34528,8.54022 0,5.36246 -2.34528,9.13605 -2.23866,3.77358 -6.07639,6.15689 -3.73112,2.28402 -8.31508,3.37637 -4.47734,1.09235 -9.0613,1.09235 z M 54.47445,75.96822 66.52064,23.33665 h 4.05094 L 58.63198,75.96822 Z M 71.85081,11.22146 q -1.27923,0 -2.13207,-0.69514 -0.85282,-0.69514 -0.85282,-1.9861 0,-1.09235 0.42641,-2.0854 0.42641,-1.09236 1.27925,-1.68818 0.85282,-0.69514 2.13207,-0.69514 1.49244,0 2.13207,0.79444 0.74622,0.79444 0.74622,1.8868 0,1.58887 -1.06604,3.07844 -1.06603,1.39028 -2.66509,1.39028 z m 5.7567,64.74676 12.0462,-52.63157 h 3.4113 l -2.77169,13.00893 h 0.31982 q 1.70566,-2.97914 4.47734,-6.15689 2.8783,-3.27707 6.92923,-5.56108 4.05093,-2.28401 9.1679,-2.28401 6.92923,0 9.91413,3.97219 2.98489,3.8729 2.77168,10.22841 h 0.21321 q 1.81227,-3.17776 4.69056,-6.45482 2.9849,-3.27706 7.03583,-5.46177 4.15753,-2.28401 9.27451,-2.28401 6.39621,0 9.91412,3.37637 3.51792,3.27706 3.51792,9.63257 0,1.58887 -0.31982,3.37636 -0.2132,1.78749 -0.63962,3.57498 l -7.56884,33.66434 h -4.15754 l 7.78206,-34.06156 q 0.42641,-1.78749 0.53301,-3.27706 0.21321,-1.48957 0.21321,-2.78054 0,-5.06455 -2.77169,-7.54717 -2.66509,-2.48262 -7.46225,-2.48262 -3.73112,0 -7.35564,1.8868 -3.51791,1.88679 -6.50282,5.16384 -2.98489,3.17776 -5.22357,7.44787 -2.23867,4.27011 -3.30471,9.03674 l -5.96979,26.6137 h -4.15754 l 7.56885,-32.8699 q 0.53302,-2.18471 0.63962,-4.17081 0.21321,-1.9861 0.21321,-3.27705 0,-4.66734 -2.55849,-7.24926 -2.55848,-2.58193 -7.35564,-2.58193 -3.73112,0 -7.35564,1.8868 -3.51791,1.88679 -6.50281,5.16384 -2.98489,3.27707 -5.22357,7.54718 -2.23868,4.2701 -3.30471,9.23534 l -5.9698,26.31579 z m 85.2829,23.23735 17.26976,-75.86892 h 3.41132 l -2.66509,13.00893 h 0.21321 q 2.13207,-3.37636 5.33018,-6.55412 3.3047,-3.17775 7.56884,-5.26315 4.26414,-2.08541 9.48772,-2.08541 5.01036,0 8.63488,2.28402 3.73112,2.1847 5.64998,6.35551 2.02547,4.1708 2.02547,9.93049 0,5.06455 -1.17264,10.12909 -1.06604,5.06455 -3.41131,9.73188 -2.23867,4.56802 -5.75659,8.2423 -3.51792,3.67428 -8.20847,5.75969 -4.58395,2.08539 -10.34054,2.08539 -5.01036,0 -8.42168,-1.78748 -3.30471,-1.78749 -5.22357,-4.56803 -1.91886,-2.87984 -2.55848,-5.85898 h -0.31981 q -0.42642,2.97914 -1.17264,6.35551 -0.63962,3.37636 -1.27924,6.25621 l -5.01037,21.84707 z M 190.82052,73.4856 q 5.01037,0 8.8481,-1.88679 3.94433,-1.88679 6.92923,-5.06455 2.98489,-3.27706 5.01036,-7.44786 2.02547,-4.1708 2.9849,-8.83814 1.06603,-4.66732 1.06603,-9.33465 0,-7.05065 -3.51791,-11.02284 -3.41131,-4.0715 -9.70092,-4.0715 -3.41131,0 -6.60942,1.29097 -3.1981,1.29096 -6.0764,3.67427 -2.87829,2.28402 -5.22357,5.36247 -2.34527,3.07844 -4.05093,6.85203 -1.70566,3.67428 -2.66509,7.74578 -0.95943,4.0715 -0.95943,8.34161 0,7.14995 3.83772,10.82423 3.83773,3.57497 10.12733,3.57497 z m 38.05742,2.48262 17.16316,-75.47169 h 4.15754 l -17.16317,75.47169 z m 45.94622,0.99305 q -5.33018,0 -9.80752,-2.08539 -4.47735,-2.18471 -7.24904,-6.65343 -2.77169,-4.46872 -2.77169,-11.51937 0,-6.95134 2.13207,-13.10824 2.13207,-6.25621 6.0764,-11.02284 3.94433,-4.76664 9.1679,-7.44786 5.33017,-2.78054 11.51317,-2.78054 6.39621,0 10.12734,3.27706 3.73113,3.17775 3.73113,8.34161 0,4.66733 -2.6651,7.94439 -2.55848,3.17776 -7.24903,5.26315 -4.58395,1.9861 -10.98016,2.97915 -6.39621,0.89375 -13.96506,0.89375 h -3.30471 q -0.10661,0.99305 -0.21321,2.58192 -0.1066,1.58888 -0.1066,3.07845 0,8.143 4.37074,12.51242 4.37074,4.2701 11.93959,4.2701 4.47735,0 8.10187,-1.09235 3.62452,-1.19166 6.60941,-2.28401 v 3.57497 q -2.77168,1.29096 -6.82262,2.28401 -4.05093,0.99305 -8.63488,0.99305 z M 264.48362,47.66634 q 8.42168,0 14.92449,-1.39027 6.60941,-1.48957 10.34054,-4.46872 3.83772,-2.97914 3.83772,-7.64647 0,-3.67428 -2.55848,-5.95829 -2.55848,-2.38332 -7.67545,-2.38332 -4.69056,0 -9.48771,2.58193 -4.69056,2.58192 -8.42168,7.44786 -3.62452,4.86594 -5.22357,11.81728 z m 90.613,29.29493 q -5.01037,0 -8.42167,-1.78748 -3.41132,-1.78749 -5.33018,-4.56803 -1.81226,-2.87984 -2.45188,-5.85898 h -0.31981 l -2.8783,11.22144 h -3.41131 L 349.44664,0.49653 h 4.15753 l -4.79715,20.75472 q -0.42642,2.28401 -1.17264,5.06454 -0.63963,2.78054 -1.38585,5.36247 -0.63962,2.58192 -1.27924,4.66732 h 0.31981 q 2.13207,-3.27705 5.33017,-6.45481 3.19811,-3.27706 7.46225,-5.36246 4.26414,-2.08541 9.48771,-2.08541 5.01036,0 8.74149,2.28402 3.73112,2.1847 5.64999,6.35551 2.02546,4.1708 2.02546,9.83118 0,5.06455 -1.17264,10.2284 -1.06603,5.06455 -3.41132,9.73188 -2.23866,4.56802 -5.75658,8.2423 -3.51791,3.67428 -8.10187,5.75969 -4.58395,2.08539 -10.44714,2.08539 z m -0.1066,-3.47567 q 5.01036,0 8.84809,-1.88679 3.94433,-1.88679 6.92923,-5.06455 2.98489,-3.27706 5.01036,-7.44786 2.02546,-4.1708 2.9849,-8.83814 1.06604,-4.66732 1.06604,-9.33465 0,-7.05065 -3.51792,-11.02284 -3.41131,-4.0715 -9.70092,-4.0715 -3.62452,0 -6.92923,1.39027 -3.19811,1.29096 -6.0764,3.67428 -2.87829,2.28401 -5.22357,5.46176 -2.34528,3.17776 -3.94433,6.95134 -1.59905,3.67429 -2.55848,7.74579 -0.85283,3.97219 -0.85283,8.04369 0,7.14995 3.83772,10.82423 3.83773,3.57497 10.12734,3.57497 z M 382.28043,100 q -2.23867,0 -3.62451,-0.29791 -1.49245,-0.19861 -2.7717,-0.69514 v -3.47567 q 1.27925,0.49653 2.7717,0.79445 1.49244,0.29791 3.62451,0.29791 3.94434,0 7.03583,-2.78054 3.19811,-2.68123 6.60942,-8.34161 l 6.183,-9.93048 -9.1679,-52.23436 h 4.05093 l 5.7566,33.56504 q 0.53301,3.07846 0.95943,5.85899 0.42641,2.78053 0.63962,5.06455 0.31981,2.1847 0.42641,3.77358 h 0.2132 q 0.85284,-1.48957 1.91887,-3.67427 1.17264,-2.18471 2.66509,-4.76664 1.49245,-2.58193 3.1981,-5.36246 l 20.46788,-34.45879 h 4.47734 L 399.5502,86.89176 q -2.55849,4.17081 -5.11697,7.14995 -2.55848,2.97915 -5.54338,4.46872 Q 386.01155,100 382.28043,100 Z M 465.43125,75.96822 481.52838,5.06455 h 15.99051 q 14.39151,0 22.49331,7.05065 8.2085,7.05065 8.2085,21.54916 0,6.75273 -1.8123,13.00893 -1.8122,6.1569 -5.5434,11.51936 -3.6244,5.36246 -9.2745,9.33466 -5.5434,3.97219 -13.1122,6.25621 -7.46219,2.1847 -16.84332,2.1847 z m 16.41694,-3.57497 q 8.31507,0 14.92451,-1.98609 6.716,-1.9861 11.7264,-5.56108 5.117,-3.67428 8.5282,-8.44091 3.4113,-4.86594 5.117,-10.62562 1.7057,-5.85899 1.7057,-12.11519 0,-13.00894 -7.2491,-18.96723 -7.1424,-6.0576 -20.14806,-6.0576 h -11.40655 l -14.60468,63.75372 z m 76.54131,4.56802 q -5.3302,0 -9.8075,-2.08539 -4.4774,-2.18471 -7.2491,-6.65343 -2.7716,-4.46872 -2.7716,-11.51937 0,-6.95134 2.132,-13.10824 2.1321,-6.25621 6.0763,-11.02284 3.9444,-4.76664 9.168,-7.44786 5.3302,-2.78054 11.5132,-2.78054 6.3961,0 10.1273,3.27706 3.7311,3.17775 3.7311,8.34161 0,4.66733 -2.6651,7.94439 -2.5585,3.17776 -7.249,5.26315 -4.5839,1.9861 -10.9802,2.97915 -6.3962,0.89375 -13.965,0.89375 h -3.3047 q -0.1066,0.99305 -0.2133,2.58192 -0.1065,1.58888 -0.1065,3.07845 0,8.143 4.3707,12.51242 4.3707,4.2701 11.9396,4.2701 4.4773,0 8.1019,-1.09235 3.6245,-1.19166 6.6093,-2.28401 v 3.57497 q -2.7716,1.29096 -6.8225,2.28401 -4.051,0.99305 -8.6349,0.99305 z M 548.0489,47.66634 q 8.4217,0 14.9245,-1.39027 6.6094,-1.48957 10.3406,-4.46872 3.8377,-2.97914 3.8377,-7.64647 0,-3.67428 -2.5585,-5.95829 -2.5585,-2.38332 -7.6755,-2.38332 -4.6905,0 -9.4877,2.58193 -4.6906,2.58192 -8.4216,7.44786 -3.6246,4.86594 -5.2236,11.81728 z m 54.0479,29.29493 q -5.4367,0 -9.4876,-1.19165 -4.051,-1.19166 -6.6094,-2.38332 v -4.0715 q 3.0915,1.68818 7.2489,2.97915 4.2643,1.19165 8.8481,1.19165 5.5434,0 8.9548,-1.39027 3.4113,-1.48957 5.0103,-3.97219 1.7057,-2.58193 1.7057,-5.85898 0,-3.07846 -1.599,-5.06455 -1.5992,-2.08541 -4.2642,-3.67428 -2.5585,-1.58888 -5.7566,-3.07845 -3.6245,-1.88679 -6.6094,-3.67429 -2.8783,-1.88679 -4.6905,-4.2701 -1.7057,-2.48262 -1.7057,-6.0576 0,-4.76663 2.4519,-7.84508 2.4518,-3.17776 6.716,-4.66733 4.3707,-1.58888 9.4877,-1.58888 5.117,0 9.0613,0.99305 3.9443,0.89375 6.8226,2.18471 l -1.3859,3.37636 q -2.665,-1.29096 -6.5027,-2.1847 -3.8377,-0.89375 -8.102,-0.89375 -6.1829,0 -10.3404,2.58193 -4.051,2.48262 -4.051,7.74578 0,2.78053 1.4924,4.66732 1.4925,1.7875 4.051,3.27707 2.5585,1.48957 5.7566,3.17775 3.5179,1.78749 6.5028,3.67428 3.0915,1.78749 5.0103,4.36941 1.9189,2.58193 1.9189,6.65343 0,4.27011 -2.2386,7.74578 -2.1322,3.37636 -6.5028,5.36246 -4.3708,1.88679 -11.1935,1.88679 z m 31.3415,-0.99305 12.0461,-52.63157 h 4.0509 l -11.9396,52.63157 z m 17.3763,-64.74676 q -1.2793,0 -2.1321,-0.69514 -0.8528,-0.69514 -0.8528,-1.9861 0,-1.09235 0.4264,-2.0854 0.4264,-1.09236 1.2792,-1.68818 0.8529,-0.69514 2.1322,-0.69514 1.4923,0 2.132,0.79444 0.7463,0.79444 0.7463,1.8868 0,1.58887 -1.0661,3.07844 -1.0661,1.39028 -2.6651,1.39028 z m 21.1076,88.57994 q -4.6906,0 -8.8481,-0.99305 -4.0509,-0.99305 -7.0359,-2.28402 v -3.97219 q 2.0256,0.99305 4.584,1.88679 2.6651,0.89375 5.5434,1.39027 2.9849,0.49653 5.7566,0.49653 9.4877,0 14.6047,-4.76664 5.117,-4.66733 7.0358,-12.90963 l 0.9595,-4.0715 q 0.6396,-2.68123 1.4923,-6.0576 0.9595,-3.37637 1.5992,-5.95829 h -0.2132 q -2.2387,3.47567 -5.7566,6.75273 -3.4114,3.27706 -7.6755,5.46177 -4.2642,2.1847 -9.3811,2.1847 -5.3302,0 -8.9547,-2.28401 -3.5179,-2.28401 -5.3302,-6.45481 -1.7056,-4.17081 -1.7056,-9.83118 0,-5.06455 1.1726,-10.1291 1.1726,-5.16385 3.4113,-9.73188 2.3453,-4.66733 5.8632,-8.2423 3.5179,-3.67428 8.1018,-5.75968 4.6906,-2.18471 10.4472,-2.18471 5.0104,0 8.3151,1.8868 3.4113,1.78748 5.2235,4.56801 1.9189,2.78054 2.5585,5.859 h 0.3198 l 2.9849,-11.32076 h 3.3048 l -12.6858,55.51142 q -1.386,6.55411 -4.584,11.22145 -3.1981,4.66733 -8.4217,7.14995 -5.117,2.58193 -12.6858,2.58193 z m 3.6245,-26.3158 q 3.0915,0 6.183,-1.19165 3.0915,-1.19166 5.9698,-3.37637 2.9849,-2.28401 5.4367,-5.26316 2.5586,-3.07845 4.3708,-6.75273 1.9189,-3.67428 2.985,-7.84508 1.0659,-4.27011 1.0659,-8.73883 0,-7.14995 -3.731,-10.82423 -3.7312,-3.67428 -10.1274,-3.67428 -4.9037,0 -8.8481,1.8868 -3.9444,1.88679 -6.9292,5.16384 -2.985,3.17776 -5.0104,7.44787 -2.0255,4.17081 -3.0915,8.83813 -0.9594,4.66733 -0.9594,9.23536 0,7.05064 2.9849,11.12214 3.0914,3.97219 9.7009,3.97219 z m 41.6819,2.48262 12.0463,-52.63157 h 3.5178 l -2.5584,13.00893 h 0.2132 q 1.8122,-3.07845 4.9037,-6.2562 3.1981,-3.27706 7.5689,-5.46177 4.4773,-2.28401 9.9141,-2.28401 4.6906,0 7.8886,1.48957 3.1982,1.48957 4.9038,4.36942 1.7057,2.87984 1.7057,7.14995 0,1.58887 -0.3198,3.47567 -0.2132,1.78749 -0.6396,3.47567 l -7.6755,33.66434 h -4.2641 l 7.782,-34.06156 q 0.4264,-1.88679 0.6396,-3.27706 0.2132,-1.48957 0.2132,-2.78054 0,-5.06455 -2.9849,-7.44786 -2.8783,-2.48263 -8.1018,-2.48263 -5.3302,0 -10.4472,3.17776 -5.0104,3.07845 -8.7415,8.44092 -3.7311,5.36246 -5.2235,12.11518 l -6.0764,26.31579 z m 51.4896,12.81034 q 2.5585,-4.66733 4.584,-8.83814 1.9188,-4.0715 3.5179,-7.94439 1.599,-3.87289 2.9849,-7.54716 h 4.3707 l 0.2132,1.19165 q -1.599,3.57498 -3.5179,7.64648 -1.9189,4.0715 -4.1576,8.04369 -2.2386,3.9722 -4.5839,7.44787 z M 827.4568,75.96822 843.5539,5.06455 h 38.2707 l -0.7462,3.57498 h -34.1132 l -6.3962,28.20258 h 31.981 l -0.7462,3.57498 h -31.981 l -7.3556,31.97616 h 34.0065 l -0.7463,3.57497 z m 44.4536,23.83318 q -1.599,0 -3.5179,-0.29792 -1.9188,-0.29791 -3.0915,-0.69513 v -3.57498 q 1.4924,0.49653 3.1981,0.79444 1.7056,0.29792 3.1981,0.29792 3.6245,0 5.9698,-2.58193 2.3453,-2.48262 3.5179,-7.54717 l 13.5387,-59.48361 h -9.9142 l 0.4264,-2.48262 10.234,-0.89375 1.7056,-7.44787 q 0.9595,-3.87289 2.3453,-6.85203 1.4924,-3.07846 3.6246,-5.06455 2.132,-1.9861 5.0103,-2.97915 Q 911.1405,0 915.0849,0 q 2.5584,0 4.7971,0.49653 2.2386,0.39721 3.7311,0.89374 l -1.1726,3.37637 q -1.7057,-0.69514 -3.5179,-0.99305 -1.8123,-0.29792 -3.8377,-0.29792 -5.9698,0 -9.168,2.97915 -3.1981,2.97914 -4.6905,9.83118 l -1.5991,7.05065 h 24.3056 l 1.7057,-7.44787 q 0.9594,-3.97219 2.3453,-6.95134 1.4924,-2.97915 3.6245,-4.96524 2.1321,-1.9861 5.1169,-2.97915 Q 939.7102,0 943.6545,0 q 2.4519,0 4.6906,0.49653 2.2387,0.39721 3.8378,0.89374 l -1.2793,3.37637 q -1.599,-0.69514 -3.5179,-0.99305 -1.8123,-0.29792 -3.7312,-0.29792 -6.0763,0 -9.2745,2.97915 -3.198,2.97914 -4.6905,9.83118 l -1.5991,7.05065 h 12.6858 l -0.7461,3.37637 h -12.6858 l -13.7519,59.98013 q -0.9595,4.46872 -2.7717,7.34856 -1.8123,2.97915 -4.3707,4.36941 -2.5586,1.39028 -6.0765,1.39028 -1.4924,0 -3.5179,-0.29792 -1.9188,-0.29791 -3.0914,-0.69513 v -3.57498 q 1.4924,0.49653 3.198,0.79444 1.8123,0.29792 3.1981,0.29792 3.6246,0 5.9698,-2.58193 2.3453,-2.48262 3.5179,-7.54717 l 13.5387,-59.48361 h -24.3056 l -13.7518,59.98013 q -0.9595,4.46872 -2.7718,7.34856 -1.8122,2.97915 -4.3707,4.36941 -2.5585,1.39028 -6.0764,1.39028 z m 67.2668,-23.83318 11.9396,-52.63157 h 4.1575 L 943.2281,75.96822 Z M 956.447,11.22146 q -1.1727,0 -2.0255,-0.69514 -0.8528,-0.79444 -0.8528,-1.9861 0,-1.09235 0.4264,-2.0854 0.4264,-1.09236 1.2792,-1.68818 0.8528,-0.69514 2.1321,-0.69514 1.4925,0 2.1321,0.79444 0.6396,0.79444 0.6396,1.8868 0,1.58887 -1.066,3.07844 -0.9595,1.39028 -2.6651,1.39028 z m 28.8895,65.73981 q -6.5028,0 -11.1934,-2.58192 -4.584,-2.58193 -7.0358,-7.05065 -2.3453,-4.56802 -2.3453,-10.52631 0,-5.56108 1.2793,-10.62563 1.2792,-5.06454 3.7311,-9.33465 2.4518,-4.36941 6.0764,-7.54717 3.6245,-3.27706 8.315,-5.06454 4.6906,-1.8868 10.4472,-1.8868 3.6245,0 7.1424,0.69513 3.5179,0.59583 6.183,1.78749 l -1.2792,3.47567 q -2.5585,-1.29096 -5.8632,-1.88679 -3.1981,-0.59583 -6.183,-0.59583 -5.8632,0 -10.6604,2.48262 -4.6905,2.38332 -8.1018,6.55412 -3.3047,4.17081 -5.117,9.83118 -1.8123,5.56107 -1.8123,11.91658 0,4.76664 1.9189,8.63953 1.9189,3.77358 5.5434,6.0576 3.7311,2.1847 9.2745,2.1847 3.7312,0 6.9292,-0.79443 3.3047,-0.89375 6.6095,-2.18471 v 3.47567 q -2.6651,1.29096 -6.0765,2.0854 -3.4113,0.89374 -7.782,0.89374 z m 25.1584,-0.99305 12.0462,-52.63157 h 4.0509 l -11.9396,52.63157 z m 17.3764,-64.74676 q -1.2793,0 -2.1321,-0.69514 -0.8529,-0.69514 -0.8529,-1.9861 0,-1.09235 0.4265,-2.0854 0.4264,-1.09236 1.2792,-1.68818 0.8529,-0.69514 2.132,-0.69514 1.4925,0 2.1322,0.79444 0.7461,0.79444 0.7461,1.8868 0,1.58887 -1.0659,3.07844 -1.0661,1.39028 -2.6651,1.39028 z m 28.5698,65.73981 q -5.3302,0 -9.8075,-2.08539 -4.4774,-2.18471 -7.2491,-6.65343 -2.7717,-4.46872 -2.7717,-11.51937 0,-6.95134 2.1321,-13.10824 2.1321,-6.25621 6.0764,-11.02284 3.9444,-4.76664 9.1679,-7.44786 5.3302,-2.78054 11.5132,-2.78054 6.3962,0 10.1273,3.27706 3.7311,3.17775 3.7311,8.34161 0,4.66733 -2.6651,7.94439 -2.5584,3.17776 -7.249,5.26315 -4.584,1.9861 -10.9802,2.97915 -6.3961,0.89375 -13.9651,0.89375 h -3.3046 q -0.1066,0.99305 -0.2132,2.58192 -0.1066,1.58888 -0.1066,3.07845 0,8.143 4.3707,12.51242 4.3708,4.2701 11.9396,4.2701 4.4774,0 8.1019,-1.09235 3.6245,-1.19166 6.6094,-2.28401 v 3.57497 q -2.7717,1.29096 -6.8226,2.28401 -4.051,0.99305 -8.6349,0.99305 z m -10.3405,-29.29493 q 8.4217,0 14.9244,-1.39027 6.6095,-1.48957 10.3405,-4.46872 3.8378,-2.97914 3.8378,-7.64647 0,-3.67428 -2.5585,-5.95829 -2.5584,-2.38332 -7.6754,-2.38332 -4.6905,0 -9.4877,2.58193 -4.6906,2.58192 -8.4217,7.44786 -3.6245,4.86594 -5.2236,11.81728 z m 39.9763,28.30188 12.0462,-52.63157 h 3.5179 l -2.5585,13.00893 h 0.2132 q 1.8123,-3.07845 4.9038,-6.2562 3.1981,-3.27706 7.5689,-5.46177 4.4773,-2.28401 9.914,-2.28401 4.6906,0 7.8887,1.48957 3.1981,1.48957 4.9038,4.36942 1.7057,2.87984 1.7057,7.14995 0,1.58887 -0.3199,3.47567 -0.2132,1.78749 -0.6396,3.47567 l -7.6754,33.66434 h -4.2642 l 7.7821,-34.06156 q 0.4263,-1.88679 0.6395,-3.27706 0.2133,-1.48957 0.2133,-2.78054 0,-5.06455 -2.9849,-7.44786 -2.8783,-2.48263 -8.1019,-2.48263 -5.3302,0 -10.4472,3.17776 -5.0103,3.07845 -8.7414,8.44092 -3.7312,5.36246 -5.2235,12.11518 l -6.0765,26.31579 z m 72.7036,0.99305 q -5.3301,0 -8.1019,-2.48262 -2.7716,-2.48262 -2.7716,-7.14995 0,-1.29096 0.2132,-2.78054 0.2132,-1.58887 0.6396,-3.27705 l 7.7821,-34.55809 h -8.3152 l 0.6397,-2.58193 8.4217,-0.99305 4.2641,-12.61172 h 2.8783 l -2.8783,12.81033 h 16.7368 l -0.8529,3.37637 h -16.7368 l -7.782,34.35947 q -0.4264,1.48958 -0.6397,3.07846 -0.1065,1.48957 -0.1065,2.78054 0,3.07844 1.599,4.86593 1.5991,1.68818 5.3302,1.68818 2.4519,0 4.3708,-0.29791 2.0254,-0.39722 3.7311,-0.99305 v 3.37637 q -1.5991,0.49652 -3.7311,0.89374 -2.0255,0.49652 -4.6906,0.49652 z m 70.8912,0 q -5.0104,0 -8.4216,-1.78748 -3.4113,-1.78749 -5.3302,-4.56803 -1.8123,-2.87984 -2.4519,-5.85898 h -0.3198 l -2.8783,11.22144 h -3.4113 l 17.1632,-75.47169 h 4.1575 l -4.7971,20.75472 q -0.4265,2.28401 -1.1727,5.06454 -0.6396,2.78054 -1.3859,5.36247 -0.6396,2.58192 -1.2792,4.66732 h 0.3198 q 2.1321,-3.27705 5.3302,-6.45481 3.1981,-3.27706 7.4622,-5.36246 4.2642,-2.08541 9.4877,-2.08541 5.0104,0 8.7416,2.28402 3.731,2.1847 5.6499,6.35551 2.0255,4.1708 2.0255,9.83118 0,5.06455 -1.1726,10.2284 -1.0661,5.06455 -3.4114,9.73188 -2.2387,4.56802 -5.7565,8.2423 -3.5179,3.67428 -8.1019,5.75969 -4.584,2.08539 -10.4472,2.08539 z m -0.1065,-3.47567 q 5.0103,0 8.848,-1.88679 3.9443,-1.88679 6.9293,-5.06455 2.9849,-3.27706 5.0103,-7.44786 2.0255,-4.1708 2.985,-8.83814 1.0659,-4.66732 1.0659,-9.33465 0,-7.05065 -3.5178,-11.02284 -3.4114,-4.0715 -9.701,-4.0715 -3.6245,0 -6.9292,1.39027 -3.1981,1.29096 -6.0764,3.67428 -2.8783,2.28401 -5.2236,5.46176 -2.3453,3.17776 -3.9443,6.95134 -1.599,3.67429 -2.5584,7.74579 -0.8529,3.97219 -0.8529,8.04369 0,7.14995 3.8377,10.82423 3.8377,3.57497 10.1274,3.57497 z M 1256.8556,100 q -2.2387,0 -3.6245,-0.29791 -1.4925,-0.19861 -2.7717,-0.69514 v -3.47567 q 1.2792,0.49653 2.7717,0.79445 1.4925,0.29791 3.6245,0.29791 3.9444,0 7.0359,-2.78054 3.198,-2.68123 6.6094,-8.34161 l 6.1829,-9.93048 -9.1679,-52.23436 h 4.051 l 5.7566,33.56504 q 0.533,3.07846 0.9594,5.85899 0.4265,2.78053 0.6397,5.06455 0.3198,2.1847 0.4263,3.77358 h 0.2132 q 0.8529,-1.48957 1.9189,-3.67427 1.1726,-2.18471 2.6651,-4.76664 1.4925,-2.58193 3.1981,-5.36246 l 20.4679,-34.45879 h 4.4774 l -38.1641,63.55511 q -2.5585,4.17081 -5.117,7.14995 -2.5585,2.97915 -5.5434,4.46872 Q 1260.5867,100 1256.8556,100 Z m 83.1509,-24.03178 16.0971,-70.90367 h 15.9905 q 14.3915,0 22.4933,7.05065 8.2085,7.05065 8.2085,21.54916 0,6.75273 -1.8123,13.00893 -1.8122,6.1569 -5.5434,11.51936 -3.6245,5.36246 -9.2745,9.33466 -5.5434,3.97219 -13.1122,6.25621 -7.4622,2.1847 -16.8434,2.1847 z m 16.4168,-3.57497 q 8.3151,0 14.9246,-1.98609 6.716,-1.9861 11.7263,-5.56108 5.1171,-3.67428 8.5283,-8.44091 3.4113,-4.86594 5.117,-10.62562 1.7057,-5.85899 1.7057,-12.11519 0,-13.00894 -7.2491,-18.96723 -7.1424,-6.0576 -20.1481,-6.0576 h -11.4065 l -14.6047,63.75372 z m 76.5413,4.56802 q -5.3302,0 -9.8075,-2.08539 -4.4774,-2.18471 -7.2491,-6.65343 -2.7716,-4.46872 -2.7716,-11.51937 0,-6.95134 2.132,-13.10824 2.1321,-6.25621 6.0764,-11.02284 3.9444,-4.76664 9.1679,-7.44786 5.3302,-2.78054 11.5132,-2.78054 6.3962,0 10.1274,3.27706 3.731,3.17775 3.731,8.34161 0,4.66733 -2.6651,7.94439 -2.5584,3.17776 -7.249,5.26315 -4.5839,1.9861 -10.9802,2.97915 -6.3962,0.89375 -13.965,0.89375 h -3.3048 q -0.1065,0.99305 -0.2131,2.58192 -0.1066,1.58888 -0.1066,3.07845 0,8.143 4.3707,12.51242 4.3707,4.2701 11.9397,4.2701 4.4773,0 8.1018,-1.09235 3.6245,-1.19166 6.6094,-2.28401 v 3.57497 q -2.7717,1.29096 -6.8226,2.28401 -4.0509,0.99305 -8.6349,0.99305 z m -10.3405,-29.29493 q 8.4217,0 14.9245,-1.39027 6.6094,-1.48957 10.3405,-4.46872 3.8377,-2.97914 3.8377,-7.64647 0,-3.67428 -2.5585,-5.95829 -2.5584,-2.38332 -7.6754,-2.38332 -4.6906,0 -9.4877,2.58193 -4.6906,2.58192 -8.4217,7.44786 -3.6245,4.86594 -5.2236,11.81728 z m 29.7424,52.13506 q -1.5991,0 -3.518,-0.29792 -1.9189,-0.29791 -3.0915,-0.69513 v -3.57498 q 1.4925,0.49653 3.1981,0.79444 1.7057,0.29792 3.1982,0.29792 3.7311,0 6.0763,-2.58193 2.2387,-2.58193 3.4114,-7.54717 l 13.5386,-59.48361 h -9.9141 l 0.4264,-2.48262 10.2339,-0.89375 1.7057,-7.44787 q 0.9594,-3.87289 2.3453,-6.85203 1.4924,-3.07846 3.6244,-5.06455 2.1321,-1.9861 5.0104,-2.97915 Q 1491.5965,0 1495.5409,0 q 2.5585,0 4.7971,0.49653 2.2387,0.39721 3.7312,0.89374 l -1.1727,3.37637 q -1.7056,-0.69514 -3.5179,-0.99305 -1.8123,-0.29792 -3.8377,-0.29792 -5.9699,0 -9.1679,2.97915 -3.1982,2.97914 -4.6906,9.83118 l -1.599,7.05065 h 12.6858 l -0.7463,3.37637 h -12.6858 l -13.7518,59.98013 q -0.9594,4.46872 -2.7717,7.34856 -1.8122,2.97915 -4.3708,4.36941 -2.5584,1.39028 -6.0763,1.39028 z m 57.246,-22.84013 q -5.0104,0 -8.5284,-2.28401 -3.4112,-2.28401 -5.2235,-6.45481 -1.8122,-4.17081 -1.8122,-9.83118 0,-5.06455 1.1726,-10.1291 1.2793,-5.16385 3.6245,-9.83118 2.3453,-4.66733 5.7566,-8.2423 3.4113,-3.57498 7.8887,-5.66038 4.5839,-2.18471 10.0207,-2.18471 4.7971,0 7.7821,1.8868 3.0915,1.88679 4.7971,4.76663 1.7056,2.78053 2.3453,5.66038 h 0.3197 l 2.985,-11.32076 h 3.3047 l -11.9396,52.63157 h -3.4113 l 2.6651,-13.00893 h -0.3199 q -1.9188,2.97915 -5.1169,6.25621 -3.1981,3.27705 -7.3557,5.56107 -4.1575,2.1847 -8.9546,2.1847 z m 0.8528,-3.47567 q 4.7971,0 9.5943,-3.07844 4.7971,-3.17776 8.5283,-8.54022 3.8377,-5.46177 5.4368,-12.1152 0.6396,-3.07845 0.9594,-5.26315 0.3198,-2.28402 0.3198,-4.17081 0,-6.85204 -3.4113,-10.62562 -3.3047,-3.87289 -9.2745,-3.87289 -4.5839,0 -8.4217,1.8868 -3.8377,1.88679 -6.8226,5.16384 -2.9849,3.17776 -5.0104,7.34856 -1.9189,4.17081 -2.9848,8.83814 -1.0661,4.66733 -1.0661,9.33466 0,7.05064 3.0915,11.12214 3.0915,3.97219 9.0613,3.97219 z m 57.2461,3.47567 q -4.5839,0 -7.8886,-1.48957 -3.1981,-1.48957 -4.9037,-4.36941 -1.5992,-2.87984 -1.5992,-7.14995 0,-1.48957 0.2132,-3.27706 0.3199,-1.8868 0.7463,-3.67428 l 7.5689,-33.66435 h 4.1575 l -7.782,34.16087 q -0.4264,1.68818 -0.6397,3.17776 -0.1066,1.48957 -0.1066,2.78054 0,5.06454 2.8783,7.54716 2.8783,2.48262 8.2085,2.48262 5.5434,0 10.5538,-3.17775 5.0103,-3.17776 8.7414,-8.54022 3.7312,-5.36246 5.2235,-12.01589 l 6.0765,-26.41509 h 4.0509 l -11.9396,52.63157 h -3.5179 l 2.665,-13.00893 h -0.3197 q -1.7057,2.97915 -4.9038,6.25621 -3.198,3.27705 -7.5688,5.56107 -4.3708,2.1847 -9.9142,2.1847 z m 42.5349,-0.99305 17.1631,-75.47169 h 4.1576 l -17.1632,75.47169 z m 36.2452,0.99305 q -5.3302,0 -8.1018,-2.48262 -2.7717,-2.48262 -2.7717,-7.14995 0,-1.29096 0.2132,-2.78054 0.2132,-1.58887 0.6396,-3.27705 l 7.7821,-34.55809 h -8.3151 l 0.6397,-2.58193 8.4216,-0.99305 4.2642,-12.61172 h 2.8783 l -2.8783,12.81033 H 1666 l -0.8529,3.37637 h -16.7367 l -7.782,34.35947 q -0.4265,1.48958 -0.6397,3.07846 -0.1065,1.48957 -0.1065,2.78054 0,3.07844 1.599,4.86593 1.599,1.68818 5.3302,1.68818 2.4519,0 4.3708,-0.29791 2.0254,-0.39722 3.731,-0.99305 v 3.37637 q -1.599,0.49652 -3.731,0.89374 -2.0256,0.49652 -4.6907,0.49652 z" />
</svg>